<?xml version="1.0" encoding="utf-8"?>
<!-- Generator: Adobe Illustrator 18.1.1, SVG Export Plug-In . SVG Version: 6.00 Build 0)  -->
<svg version="1.1" id="Layer_1" xmlns="http://www.w3.org/2000/svg" xmlns:xlink="http://www.w3.org/1999/xlink" x="0px" y="0px"
	 viewBox="0 0 118 28.5" enable-background="new 0 0 118 28.5" xml:space="preserve">
<path fill="#64C7CA" d="M22.5,11.5c0-3.3-1.8-4.6-4.2-4.6h-0.7v1.8h0.3c1.6,0,2.6,0.6,2.6,2.6c0.1,3,0.1,6.1,0,9.1
	c-2.9,0-5.8,0-8.7,0c-2,0-2.9-0.9-2.9-2.9v-2.1c2.2,0,4.9,0,6.8,0c-0.1-3.6,0-7.3,0-10.9c0-3-1.9-4.4-4.3-4.4C7.6,0,3.8,0.1,0,0
	c0.1,3.7,0,7.5,0,10.7c0,3.3,1.8,4.6,4.2,4.6H5v-1.8H4.7C3.1,13.6,2.1,13,2,11C2,8,2,4.8,2,1.8c2.9,0,5.8,0,8.7,0
	c2,0,2.9,0.9,2.9,2.9v2.1c-2.2,0-4.9,0-6.8,0c0.1,3.6,0,7.3,0,10.9c0,3,1.9,4.4,4.3,4.4c3.8,0,7.6,0,11.4,0
	C22.5,18.5,22.5,14.7,22.5,11.5 M8.8,13.5c0-1.6,0-3.2,0-4.9c1.6,0,3.3,0,4.9,0c0,1.6,0,3.2,0,4.9C12.1,13.5,10.3,13.5,8.8,13.5"/>
<path fill="#64C7CA" d="M112,1.8c0.1,2.6,0.2,5.3,0.2,15.6c0,3,1.9,4.5,4.1,4.5c0.7,0,1.5-0.1,2-0.2v-2.1c-0.5,0.2-0.9,0.2-1.3,0.2
	c-1.3,0-2.5-0.3-2.5-2.6c-0.1-2.6-0.1-5.1-0.1-7.7c0-2.6,0-5.1,0.1-7.7H112L112,1.8z M106.6,19.5v-0.4c-0.9,0.6-2,0.9-3.1,0.9
	c-1.9,0-3.1-0.7-3.1-3.1c-0.1-2.7-0.1-5.3,0-7.8H98c0.1,1.4,0.1,2.8,0.1,8.2c0,3.3,2,4.8,4.8,4.8c1.6,0,2.8-0.5,3.6-1.2v1.5
	c0,2.4-1.2,3.7-4.3,3.7c-1.3,0-2.7-0.3-4.1-1.1v2.3c1.3,0.6,2.8,0.7,4.3,0.7c3.8,0,6.4-2,6.4-5.8c0-4.8-0.1-9.1,0.1-13.2h-2.4
	C106.6,12.5,106.6,16,106.6,19.5 M95.8,18.3c0-4.2-6.7-3.6-6.7-6.1c0-1.1,1.2-1.6,2.7-1.6c1.2,0,2.4,0.3,3.5,0.9V9.3
	c-0.9-0.4-2.1-0.6-3.4-0.6c-2.5,0-5,1.1-5,3.7c0,4.2,6.7,3.7,6.7,6.2c0,1-1.1,1.5-3,1.5c-1.2,0-2.5-0.2-3.7-0.9v2.2
	c1.1,0.4,2.3,0.6,3.6,0.6C93.4,22.1,95.8,20.8,95.8,18.3 M73.6,21.8h2.4c-0.2-3.5-0.1-7-0.1-10.6c0.9-0.3,2-0.5,3-0.5
	c2.1,0,3.5,0.7,3.6,3.2c0.1,2.7,0.1,5.3-0.1,7.9h2.4c-0.1-2.7-0.1-5.5-0.1-8.3c0-3.3-2.1-4.8-5-4.8c-2,0-2.8,0.6-4.3,0.6
	c-0.5,0-1.1-0.1-1.8-0.2C73.6,13.9,73.7,17.6,73.6,21.8 M70.2,9h-2.4c0.2,3.5,0.1,7,0.1,10.5C67,19.8,66,20,65,20
	c-2.1,0-3.5-0.7-3.6-3.2c-0.1-2.7-0.1-5.3,0.1-7.9h-2.4c0.1,2.7,0.1,5.5,0.1,8.2c0,3.3,2.1,4.8,5,4.8c2,0,2.8-0.6,4.3-0.6
	c0.5,0,1.1,0.1,1.8,0.2C70.2,16.8,70.1,13.2,70.2,9 M50.4,20C48,20,46,18.1,46,15.3c0-2.7,2-4.6,4.3-4.6c2.4,0,4.4,1.9,4.4,4.6
	C54.7,18.1,52.8,20,50.4,20 M50.4,22c3.6,0,6.6-2.7,6.6-6.7c0-4-3-6.7-6.6-6.7c-3.6,0-6.6,2.7-6.6,6.7C43.8,19.3,46.7,22,50.4,22
	 M38.5,22.1c1.8,0,3.6-0.3,5.1-1.1c-0.5-0.5-1-1.2-1.2-1.9c-1.2,0.6-2.5,0.8-3.9,0.8c-4.2,0-7.2-2.8-7.2-6.7c0-4.3,3.1-7,7.3-7
	c2,0,3.6,0.5,4.9,1.4V4.9C42.4,4.3,40.7,4,38.8,4c-5.9,0-10,3.6-10,9.2C28.8,18.2,32.7,22.1,38.5,22.1"/>
</svg>
