<svg id="Layer_1" xmlns="http://www.w3.org/2000/svg" xmlns:xlink="http://www.w3.org/1999/xlink" viewBox="0 0 16.2 16.3"><defs><path id="SVGID_1_" d="M6.3 9.9V6.3h3.5v3.6H6.3m9.9-1.5c0-2.4-1.3-3.4-3-3.4h-.5v1.3h.2c1.1 0 1.9.4 1.9 1.9v6.7H8.5c-1.5 0-2.1-.7-2.1-2.2v-1.6h4.9v-8C11.2 1.1 9.9 0 8.2 0H0v7.9c0 2.4 1.3 3.4 3 3.4h.5V10h-.2c-1.1 0-1.8-.5-1.8-2V1.3h6.3c1.5 0 2.1.7 2.1 2.2V5H5v8c0 2.2 1.4 3.3 3.1 3.3h8.2c-.2-2.7-.1-5.5-.1-7.9"/></defs><clipPath id="SVGID_2_"><use xlink:href="#SVGID_1_" overflow="visible"/></clipPath><path clip-path="url(#SVGID_2_)" fill="#01C7C8" d="M-5-5h26.2v26.3H-5z"/></svg>